<?xml version="1.0"?>
<svg xmlns="http://www.w3.org/2000/svg" xmlns:xlink="http://www.w3.org/1999/xlink" xmlns:svgjs="http://svgjs.com/svgjs" version="1.1" width="512" height="512" x="0" y="0" viewBox="0 0 64 64" style="enable-background:new 0 0 512 512" xml:space="preserve" class=""><g><path xmlns="http://www.w3.org/2000/svg" d="m2 7v50h60v-50zm49 23v-7h4v7h2l-4 5-4-5zm-12-4v-7h4v7h2l-4 5-4-5zm-12-4v-7h4v7h2l-4 5-4-5zm-12-4v-7h4v7h2l-4 5-4-5zm43 35h-52v-42h4v38h4v-22h6v22h6v-18h6v18h6v-14h6v14h6v-10h6v10h2z" fill="#ffffff" data-original="#000000" style="" class=""/></g></svg>
