<?xml version="1.0"?>
<svg xmlns="http://www.w3.org/2000/svg" xmlns:xlink="http://www.w3.org/1999/xlink" xmlns:svgjs="http://svgjs.com/svgjs" version="1.1" width="512" height="512" x="0" y="0" viewBox="0 0 64 64" style="enable-background:new 0 0 512 512" xml:space="preserve" class=""><g><path xmlns="http://www.w3.org/2000/svg" d="m39 23h2v4h-2z" fill="#ffffff" data-original="#000000" style="" class=""/><path xmlns="http://www.w3.org/2000/svg" d="m43 19h2v8h-2z" fill="#ffffff" data-original="#000000" style="" class=""/><path xmlns="http://www.w3.org/2000/svg" d="m36.878 34.536-3.794 3.794c-.935.935-2.1 1.517-3.281 1.64-1.591.176-3.145-.382-4.267-1.505-1.124-1.123-1.673-2.679-1.507-4.269.124-1.182.706-2.347 1.641-3.28l3.794-3.794c-.485-.083-.972-.124-1.461-.124-.968 0-1.941.162-2.912.488-2.989 1.002-5.245 3.518-5.887 6.564-.376 1.784-.22 3.613.453 5.29l.267.666-15.355 13.115c-.997.852-1.569 2.093-1.569 3.403 0 2.468 2.008 4.476 4.476 4.476 1.312 0 2.552-.571 3.402-1.568l13.114-15.356.667.268c1.676.672 3.507.827 5.291.453 3.046-.643 5.562-2.898 6.564-5.888.49-1.461.611-2.925.364-4.373zm-28.878 23.464c-1.103 0-2-.897-2-2s.897-2 2-2 2 .897 2 2-.897 2-2 2zm4.707-5.293-1.414-1.414 1.414-1.414 1.414 1.414zm2.829-2.828-1.414-1.414 1.414-1.414 1.414 1.414zm2.828-2.829-1.414-1.414 1.343-1.343 1.414 1.414z" fill="#ffffff" data-original="#000000" style="" class=""/><path xmlns="http://www.w3.org/2000/svg" d="m47 17h2v10h-2z" fill="#ffffff" data-original="#000000" style="" class=""/><path xmlns="http://www.w3.org/2000/svg" d="m37.825 40.944c.395.031.788.056 1.175.056 8.822 0 16-7.178 16-16s-7.178-16-16-16-16 7.178-16 16c0 .386.025.779.056 1.176.45-.225.915-.424 1.399-.586 2.403-.806 4.92-.779 7.281.074l1.479.535-6.131 6.131c-.611.611-.99 1.348-1.065 2.073-.103.987.236 1.952.932 2.647.695.694 1.657 1.03 2.646.931.727-.076 1.463-.455 2.075-1.065l6.131-6.131.535 1.479c.854 2.36.879 4.878.074 7.28-.164.485-.363.95-.587 1.4zm3.327-2.109-.304-1.977c.608-.094 1.212-.235 1.792-.421l.609 1.904c-.679.219-1.385.385-2.097.494zm4.091-1.302-.893-1.789c.548-.273 1.081-.593 1.582-.947l1.156 1.631c-.584.415-1.205.787-1.845 1.105zm3.5-2.48-1.392-1.436c.441-.429.853-.894 1.223-1.382l1.595 1.207c-.431.571-.911 1.112-1.426 1.611zm-21.164-13.745-1.903-.615c1.379-4.268 4.75-7.638 9.017-9.017l.615 1.902c-3.659 1.183-6.548 4.071-7.729 7.73zm11.421-10.308v2c-.623 0-1.244.048-1.846.142l-.308-1.977c.704-.109 1.428-.165 2.154-.165zm-2 18v-8h4v-4h4v-2h6v14z" fill="#ffffff" data-original="#000000" style="" class=""/><path xmlns="http://www.w3.org/2000/svg" d="m58.632 21.193-.136-.602c-.499-2.214-1.372-4.317-2.597-6.255l-.33-.521 1.263-2.097-4.551-4.551-2.097 1.263-.522-.33c-1.937-1.225-4.041-2.099-6.254-2.597l-.602-.136-.588-2.367h-6.436l-.588 2.368-.602.136c-2.213.498-4.317 1.372-6.254 2.597l-.522.33-2.097-1.263-4.551 4.551 1.263 2.097-.33.521c-1.225 1.938-2.099 4.041-2.597 6.255l-.136.602-2.368.588v6.436l2.369.589.067.298c.516-.638 1.102-1.216 1.75-1.726-.112-.813-.186-1.605-.186-2.379 0-9.925 8.075-18 18-18s18 8.075 18 18-8.075 18-18 18c-.776 0-1.568-.074-2.378-.186-.51.649-1.088 1.234-1.726 1.751l.298.067.588 2.368h6.436l.588-2.368.602-.136c2.213-.498 4.317-1.372 6.254-2.597l.522-.33 2.097 1.263 4.551-4.552-1.263-2.096.33-.521c1.225-1.938 2.099-4.041 2.597-6.255l.136-.602 2.368-.588v-6.436z" fill="#ffffff" data-original="#000000" style="" class=""/></g></svg>
