<?xml version="1.0" standalone="no"?>
<!DOCTYPE svg PUBLIC "-//W3C//DTD SVG 20010904//EN"
 "http://www.w3.org/TR/2001/REC-SVG-20010904/DTD/svg10.dtd">
<svg version="1.0" xmlns="http://www.w3.org/2000/svg"
 width="512.000000pt" height="512.000000pt" viewBox="0 0 512.000000 512.000000"
 preserveAspectRatio="xMidYMid meet">

<g transform="translate(0.000000,512.000000) scale(0.100000,-0.100000)"
fill="#000000" stroke="none">
<path d="M345 4775 l-25 -24 0 -991 0 -991 25 -24 24 -25 911 0 911 0 24 25
25 24 0 991 0 991 -25 24 -24 25 -911 0 -911 0 -24 -25z m739 -294 c275 -274
267 -243 105 -408 -125 -128 -143 -159 -142 -248 2 -166 176 -292 333 -240 44
15 73 37 170 131 102 100 121 114 151 114 31 0 54 -20 251 -217 267 -267 261
-249 137 -378 -220 -229 -379 -309 -619 -309 -93 -1 -130 4 -190 23 -83 26
-152 58 -220 104 -65 44 -474 451 -526 524 -93 129 -136 265 -136 428 1 228
74 376 290 588 95 93 113 107 143 107 30 0 54 -21 253 -219z"/>
<path d="M805 4480 l-29 -31 139 -139 140 -140 30 30 30 30 -140 140 -141 141
-29 -31z"/>
<path d="M630 4278 c-100 -173 -97 -391 6 -565 48 -81 486 -517 559 -557 93
-51 162 -69 270 -70 114 -1 201 21 294 75 l54 31 -139 139 c-76 76 -144 139
-149 139 -6 0 -31 -9 -54 -21 -151 -73 -331 -37 -458 90 -130 130 -163 307
-87 466 l24 50 -138 138 c-75 75 -140 137 -144 137 -4 0 -21 -24 -38 -52z"/>
<path d="M1672 3617 c-12 -13 -22 -28 -22 -33 0 -5 62 -71 138 -147 l138 -138
29 31 29 31 -139 139 c-77 77 -142 140 -146 140 -3 0 -15 -10 -27 -23z"/>
<path d="M2905 4775 l-25 -24 0 -991 0 -991 25 -24 c24 -25 24 -25 238 -25
l214 0 5 73 c8 113 53 183 148 226 90 41 180 22 255 -54 57 -56 75 -102 75
-189 l0 -56 455 0 456 0 24 25 25 24 0 991 0 991 -25 24 -24 25 -911 0 -911 0
-24 -25z m1070 -310 c39 -8 108 -33 155 -56 164 -81 298 -255 335 -434 18 -86
19 -233 3 -289 -18 -59 -99 -138 -161 -155 -77 -22 -166 -1 -225 52 -19 18
-26 19 -40 9 -9 -7 -42 -25 -72 -39 -45 -22 -69 -27 -130 -27 -90 0 -147 22
-214 84 -69 63 -101 137 -101 230 1 127 63 227 178 287 44 23 65 27 137 27
100 1 159 -23 225 -89 64 -64 87 -123 94 -243 5 -93 8 -106 30 -123 32 -26 77
-24 106 6 23 22 25 32 25 107 0 148 -43 261 -137 359 -187 197 -499 197 -686
0 -256 -268 -131 -702 230 -796 42 -11 113 -15 261 -15 202 0 203 0 227 -25
33 -32 33 -78 0 -111 l-26 -26 -237 4 c-209 4 -245 7 -302 26 -265 88 -450
339 -450 612 0 237 141 465 350 569 139 68 279 87 425 56z"/>
<path d="M3775 3986 c-101 -44 -125 -178 -46 -257 112 -113 296 -12 267 146
-18 94 -131 151 -221 111z"/>
<path d="M3549 2851 l-29 -29 0 -825 c0 -771 -1 -826 -17 -846 -25 -31 -82
-38 -110 -14 -12 10 -81 146 -154 303 -73 157 -137 291 -143 299 -5 7 -20 17
-31 21 -27 10 -115 -9 -115 -26 0 -6 72 -222 160 -478 l160 -467 119 -139
c126 -149 131 -159 131 -266 l0 -64 480 0 480 0 0 93 0 92 80 120 80 120 0
523 0 523 -25 24 c-15 16 -36 25 -55 25 -19 0 -40 -9 -55 -25 -24 -23 -25 -28
-25 -175 0 -147 -1 -152 -25 -175 -32 -33 -78 -33 -110 0 l-25 24 0 231 0 231
-25 24 c-32 33 -78 33 -110 0 l-25 -24 0 -231 0 -231 -25 -24 c-32 -33 -78
-33 -110 0 l-25 24 0 311 0 311 -25 24 c-15 16 -36 25 -55 25 -19 0 -40 -9
-55 -25 l-25 -24 0 -311 0 -311 -25 -24 c-15 -16 -36 -25 -55 -25 -19 0 -40 9
-55 25 l-25 24 0 671 0 671 -25 24 c-33 33 -70 32 -106 -4z"/>
<path d="M345 2215 l-25 -24 0 -911 0 -911 25 -24 24 -25 911 0 911 0 24 25
25 24 0 911 0 911 -25 24 -24 25 -911 0 -911 0 -24 -25z m1710 -400 l25 -24 0
-511 0 -511 -25 -24 -24 -25 -751 0 -751 0 -24 25 -25 24 0 511 0 511 25 24
24 25 751 0 751 0 24 -25z"/>
<path d="M780 1676 c0 -7 492 -441 500 -441 8 0 500 433 500 440 0 3 -225 5
-500 5 -275 0 -500 -2 -500 -4z"/>
<path d="M640 1279 l0 -303 28 26 c15 13 90 80 167 148 77 68 141 126 142 129
1 3 -52 53 -119 111 -66 58 -142 124 -169 148 l-49 44 0 -303z"/>
<path d="M1747 1429 l-167 -150 167 -148 168 -149 3 149 c1 82 1 216 0 298
l-3 149 -168 -149z"/>
<path d="M936 1027 l-159 -142 251 -3 c139 -1 365 -1 504 0 l252 3 -163 144
-162 143 -27 -25 c-57 -53 -103 -77 -149 -77 -52 0 -71 9 -134 61 -26 22 -48
39 -50 39 -2 -1 -76 -65 -163 -143z"/>
</g>
</svg>
