<svg height="512" viewBox="0 0 512 512" width="512" xmlns="http://www.w3.org/2000/svg"><g><path d="m476 176h-147.06l-1.78-3.58a8.011 8.011 0 0 0 -7.16-4.42v-72a48.086 48.086 0 0 0 -32-45.25v-6.75a28.031 28.031 0 0 0 -28-28h-8a28.031 28.031 0 0 0 -28 28v6.75a48.086 48.086 0 0 0 -32 45.25v72a8.011 8.011 0 0 0 -7.16 4.42l-1.78 3.58h-147.06a28.031 28.031 0 0 0 -28 28v264a28.031 28.031 0 0 0 28 28h440a28.031 28.031 0 0 0 28-28v-264a28.031 28.031 0 0 0 -28-28zm-236-132a12.01 12.01 0 0 1 12-12h8a12.01 12.01 0 0 1 12 12v4h-32zm-32 52a32.042 32.042 0 0 1 32-32h32a32.042 32.042 0 0 1 32 32v72h-96zm-11.06 88h118.12l8 16h-134.12zm67.06 32a8 8 0 0 1 -16 0zm-229.62 263.88a12.013 12.013 0 0 1 -10.38-11.88v-231.44l116.25 54.25zm18.27.12 102.14-182.4 97.83 45.65a7.991 7.991 0 0 0 6.76 0l97.03-45.28 101.94 182.03zm435.35-12a12.011 12.011 0 0 1 -11.33 11.97l-105.72-188.79 117.05-54.62zm0-249.09-232 108.26-232-108.26v-14.91a12.01 12.01 0 0 1 12-12h139.06l-6.22 12.42a8 8 0 0 0 7.16 11.58h56a24 24 0 0 0 48 0h56a8 8 0 0 0 7.16-11.58l-6.22-12.42h139.06a12.01 12.01 0 0 1 12 12z"/><path d="m169.343 149.657a8 8 0 0 0 11.314-11.314c-4.329-4.328-5.661-8.594-4.191-13.424a20.314 20.314 0 0 1 4.231-7.3 8 8 0 0 0 -11.354-11.273c-8.705 8.703-15.889 27.422 0 43.311z"/><path d="m158.556 168a8 8 0 0 0 5.657-13.657c-10.819-10.819-14.258-22.712-10.219-35.35a48.8 48.8 0 0 1 10.236-17.354 8 8 0 0 0 -11.332-11.3 64.646 64.646 0 0 0 -13.932 23.127c-4.362 13.089-5.487 32.767 13.932 52.187a7.978 7.978 0 0 0 5.658 2.347z"/><path d="m334.867 131.081a20.314 20.314 0 0 1 -4.231 7.3 8 8 0 0 0 11.354 11.273c8.7-8.706 15.889-27.425 0-43.314a8 8 0 1 0 -11.314 11.314c4.329 4.331 5.661 8.597 4.191 13.427z"/><path d="m357.339 137.007a48.8 48.8 0 0 1 -10.239 17.354 8 8 0 0 0 11.332 11.3 64.646 64.646 0 0 0 13.932-23.127c4.362-13.089 5.487-32.767-13.932-52.187a8 8 0 0 0 -11.315 11.314c10.822 10.815 14.261 22.708 10.222 35.346z"/></g></svg>