<?xml version="1.0"?>
<svg xmlns="http://www.w3.org/2000/svg" xmlns:xlink="http://www.w3.org/1999/xlink" xmlns:svgjs="http://svgjs.com/svgjs" version="1.1" width="512" height="512" x="0" y="0" viewBox="0 0 463 463.8" style="enable-background:new 0 0 512 512" xml:space="preserve" class=""><g><path xmlns="http://www.w3.org/2000/svg" d="m48.398438 408h-16v-64h-32v112h64v-112h-16zm0 32h-16v-16h16zm0 0" fill="#ffffff" data-original="#000000" style="" class=""/><path xmlns="http://www.w3.org/2000/svg" d="m397.199219 381.601562-124.800781 26.398438-113.597657-16 .800781-8v-8h56c8.796876 0 16-7.199219 16-16s-7.203124-16-16-16h-86.402343l-48.800781 14.398438v76l94.402343 28.800781c1.597657.800781 2.398438.800781 4 0l225.597657-51.199219c8.800781-1.601562 13.601562-10.398438 12-18.398438-2.398438-8-10.398438-13.601562-19.199219-12zm0 0" fill="#ffffff" data-original="#000000" style="" class=""/><path xmlns="http://www.w3.org/2000/svg" d="m400.398438 88c0-4.800781-3.199219-8-8-8h-96v-32c0-13.601562-10.398438-24-24-24h-48c-13.597657 0-24 10.398438-24 24v32h-96c-4.796876 0-8 3.199219-8 8v32h304zm-184-40c0-4.800781 3.203124-8 8-8h48c4.800781 0 8 3.199219 8 8v32h-64zm0 0" fill="#ffffff" data-original="#000000" style="" class=""/><path xmlns="http://www.w3.org/2000/svg" d="m232.398438 136h32v32h-32zm0 0" fill="#ffffff" data-original="#000000" style="" class=""/><path xmlns="http://www.w3.org/2000/svg" d="m104.398438 288h288c4.800781 0 8-3.199219 8-8v-144h-120v48h-64v-48h-120v144c0 4.800781 3.203124 8 8 8zm0 0" fill="#ffffff" data-original="#000000" style="" class=""/><path xmlns="http://www.w3.org/2000/svg" d="m16.398438 168h16v16h-16zm0 0" fill="#ffffff" data-original="#000000" style="" class=""/><path xmlns="http://www.w3.org/2000/svg" d="m32.398438 184h16v16h-16zm0 0" fill="#ffffff" data-original="#000000" style="" class=""/><path xmlns="http://www.w3.org/2000/svg" d="m16.398438 200h16v16h-16zm0 0" fill="#ffffff" data-original="#000000" style="" class=""/><path xmlns="http://www.w3.org/2000/svg" d="m.398438 184h16v16h-16zm0 0" fill="#ffffff" data-original="#000000" style="" class=""/><path xmlns="http://www.w3.org/2000/svg" d="m400.398438 0h16v16h-16zm0 0" fill="#ffffff" data-original="#000000" style="" class=""/><path xmlns="http://www.w3.org/2000/svg" d="m416.398438 16h16v16h-16zm0 0" fill="#ffffff" data-original="#000000" style="" class=""/><path xmlns="http://www.w3.org/2000/svg" d="m400.398438 32h16v16h-16zm0 0" fill="#ffffff" data-original="#000000" style="" class=""/><path xmlns="http://www.w3.org/2000/svg" d="m384.398438 16h16v16h-16zm0 0" fill="#ffffff" data-original="#000000" style="" class=""/><path xmlns="http://www.w3.org/2000/svg" d="m288.398438 320h16v16h-16zm0 0" fill="#ffffff" data-original="#000000" style="" class=""/><path xmlns="http://www.w3.org/2000/svg" d="m304.398438 336h16v16h-16zm0 0" fill="#ffffff" data-original="#000000" style="" class=""/><path xmlns="http://www.w3.org/2000/svg" d="m288.398438 352h16v16h-16zm0 0" fill="#ffffff" data-original="#000000" style="" class=""/><path xmlns="http://www.w3.org/2000/svg" d="m272.398438 336h16v16h-16zm0 0" fill="#ffffff" data-original="#000000" style="" class=""/></g></svg>
